<?xml version="1.0" encoding="UTF-8"?>
<!DOCTYPE svg PUBLIC "-//W3C//DTD SVG 1.1//EN" "http://www.w3.org/Graphics/SVG/1.1/DTD/svg11.dtd">
<svg version="1.1" xmlns="http://www.w3.org/2000/svg" xmlns:xlink="http://www.w3.org/1999/xlink" x="0" y="0" width="345" height="540" viewBox="0, 0, 345, 540">
  <defs>
    <clipPath id="Clip_1">
      <path d="M54.808,485.539 C42.698,498.44 18.694,497.561 11.438,490.647 C1.77,481.443 4.104,462.214 16.233,449.304 C28.333,436.408 46.8,434.074 57.444,444.069 C68.099,454.074 66.927,472.634 54.808,485.539 z"/>
    </clipPath>
  </defs>
  <g id="Layer_1">
    <path d="M11.683,489.03 C3.714,495.29 1.36,505.949 3.44,516.692 C5.257,526.184 18.157,531.052 27.767,529.221 C38.88,527.102 47.2,522.219 52.356,513.318 C62.786,495.276 73.518,491.13 89.856,490.539" fill-opacity="0" stroke="#8A8B8A" stroke-width="4.531" stroke-linecap="round" stroke-linejoin="round"/>
    <g clip-path="url(#Clip_1)">
      <path d="M54.808,485.539 C42.698,498.44 18.694,497.561 11.438,490.647 C1.77,481.443 4.104,462.214 16.233,449.304 C28.333,436.408 46.8,434.074 57.444,444.069 C68.099,454.074 66.927,472.634 54.808,485.539" fill="#8A8B8A"/>
      <path d="M9.69,489.377 C9.69,489.377 14.749,479.226 22.981,474.133" fill-opacity="0" stroke="#4D4E4C" stroke-width="3.021" stroke-linecap="round" stroke-linejoin="round"/>
    </g>
    <path d="M35.735,463.191 C37.747,465.417 36.477,469.812 32.942,473.025 C29.388,476.213 24.876,477.004 22.874,474.787 C20.872,472.57 22.132,468.166 25.677,464.963 C29.241,461.775 33.733,460.974 35.735,463.191" fill="#343534"/>
    <path d="M58.323,466.252 C60.208,469.236 57.229,475.105 63.606,473.405 C70.384,471.589 78.919,458.156 80.647,451.526 C85.56,432.771 65.452,417.912 48.919,421.086 C35.852,423.615 8.743,442.414 17.727,460.188 C22.005,468.664 33.948,476.394 43.079,472.483 C46.399,471.062 54.661,462.312 57.962,465.783 C58.099,465.935 58.216,466.086 58.323,466.252" fill="#F5BF92"/>
    <path d="M260.423,263.493 C250.306,261.364 234.544,254.226 229.544,241.062 C228.411,238.059 227.415,211.267 227.415,199.753 L184.446,199.753 C184.446,211.267 183.44,238.059 182.298,241.062 C177.298,254.226 161.546,261.364 151.438,263.493 C148.421,264.143 145.755,265.022 143.411,266.111 L143.411,307.126 L268.44,307.126 L268.44,266.111 C266.087,265.022 263.44,264.143 260.423,263.493" fill="#F5BF92"/>
    <path d="M158.392,289.148 L207.249,268.586 L250.599,293.86 L232.268,350.515 L183.499,350.022 L158.392,289.148" fill="#FFFFFE"/>
    <path d="M331.829,512.326 C322.649,308.025 299.505,275.783 294.72,270.979 C287.581,263.835 258.831,248.039 242.474,242.693 L204.808,353.337 L171.81,242.693 C155.452,248.039 123.997,259.856 118.196,268.117 C107.864,282.898 104.583,312.541 97.171,329.812 C95.208,334.392 95.892,339.299 94.31,343.694 C90.97,352.902 86.683,361.057 81.458,369.123 C70.179,386.496 41.985,409.929 32.083,427.375 C32.308,427.077 74.944,420.451 81.497,450.588 C85.862,470.739 78.685,491.721 77.786,512.326 C77.786,512.326 121.321,512.326 121.341,512.273 L121.321,512.375 L205.12,512.087 L288.274,512.375 C288.274,512.375 288.274,512.273 288.274,512.326 L331.829,512.326" fill="#343534"/>
    <path d="M331.829,512.326 C322.649,308.025 299.505,275.783 294.72,270.979 C287.581,263.835 258.831,248.039 242.474,242.693 L204.808,353.337 L171.81,242.693 C155.452,248.039 123.997,259.856 118.196,268.117 C107.864,282.898 104.583,312.541 97.171,329.812 C95.208,334.392 95.892,339.299 94.31,343.694 C90.97,352.902 86.683,361.057 81.458,369.123 C70.179,386.496 41.985,409.929 32.083,427.375 C32.308,427.077 74.944,420.451 81.497,450.588 C85.862,470.739 78.685,491.721 77.786,512.326 C77.786,512.326 121.321,512.326 121.341,512.273 L121.321,512.375 L205.12,512.087 L288.274,512.375 C288.274,512.375 288.274,512.273 288.274,512.326 L331.829,512.326 z" fill-opacity="0" stroke="#343534" stroke-width="3.927" stroke-linecap="round" stroke-linejoin="round"/>
    <path d="M290.823,145.935 C289.642,145.925 288.509,146.027 287.415,146.306 C288.04,104.299 273.47,36.286 220.032,35.827 C206.868,35.71 193.147,34.968 180.677,38.332 C131.858,51.521 122.825,102.146 123.479,146.306 C122.395,146.027 121.243,145.925 120.061,145.935 C111.966,146.062 108.958,150.046 109.056,158.205 C109.192,166.389 125.813,174.597 128.001,173.235 C135.472,196.682 167.22,237.414 205.442,238.137 C243.665,237.414 275.423,196.682 282.884,173.235 C285.091,174.597 287.63,175.471 290.393,175.505 C298.489,175.622 302.61,160.359 302.737,152.175 C302.864,144.016 298.938,146.062 290.823,145.935" fill="#F5BF92"/>
    <path d="M208.733,156.237 C208.079,160.876 197.22,178.982 197.942,181.164 C198.685,183.361 208.47,189.441 210.599,190.666" fill-opacity="0" stroke="#E77C58" stroke-width="3.437" stroke-linecap="round" stroke-linejoin="round"/>
    <path d="M154.563,122.146 C158.45,115.901 173.372,109.963 181.673,120.471 M257.356,122.146 C253.47,115.901 238.558,109.963 230.267,120.471" fill-opacity="0" stroke="#1A1919" stroke-width="4.903" stroke-linecap="round" stroke-linejoin="round"/>
    <path d="M178.743,149.397 C178.606,153.625 175.11,156.98 171.058,156.823 C166.946,156.662 163.792,153.069 163.958,148.835 C164.124,144.577 167.532,141.237 171.643,141.394 C175.716,141.555 178.919,145.134 178.743,149.397" fill="#1A1919"/>
    <path d="M246.888,149.861 C246.38,154.084 242.727,157.204 238.645,156.775 C234.602,156.35 231.673,152.614 232.161,148.361 C232.61,144.123 236.302,141.027 240.384,141.447 C244.456,141.833 247.395,145.617 246.888,149.861" fill="#1A1919"/>
    <path d="M232.845,199.851 C232.845,199.851 226.126,210.466 205.384,210.09 C184.642,209.221 178.958,200.036 178.958,200.036" fill-opacity="0" stroke="#E57266" stroke-width="5.4" stroke-linecap="round" stroke-linejoin="round"/>
    <path d="M282.61,160.193 L281.927,109.885 C281.927,109.885 251.145,77.819 222.405,70.525 C222.405,70.525 244.993,101.145 248.401,100.417 C248.401,100.417 231.292,106.242 172.464,58.86 C172.464,58.86 176.575,82.199 192.991,91.662 C192.991,91.662 156.731,75.632 156.048,53.757 C156.048,53.757 129.485,89.489 130.852,152.175 L124.817,147.077 L106.78,84.377 C106.78,84.377 117.727,56.677 141.673,45.017 L164.251,6.374 C164.251,6.374 188.88,-6.746 249.778,11.477 C249.778,11.477 280.149,28.269 294.915,30.432 C296.888,30.72 273.04,36.257 273.04,36.257 C280.042,41.306 286.985,47.199 292.415,53.933 C295.247,57.463 300.618,61.775 300.403,66.145 C300.208,70.1 294.544,75.778 291.243,77.492 C294.007,82.39 296.927,85.695 300.267,89.655 C302.669,92.502 303.255,91.613 303.567,95.808 C303.948,101.003 302.005,107.331 301.253,112.478 C300.286,119.157 300.403,141.374 294.7,145.935 C291.946,148.117 282.61,160.193 282.61,160.193" fill="#1A1919"/>
    <path d="M213.001,290.998 L198.392,291.194 L192.395,270.119 L217.747,269.777 L213.001,290.998" fill="#244875"/>
    <path d="M173.235,242.693 L204.837,268.586 L179.544,288.869 L158.245,262.927 L173.235,242.693" fill="#FFFFFE"/>
    <path d="M173.235,242.693 L204.837,268.586 L179.544,288.869 L158.245,262.927 L173.235,242.693 z" fill-opacity="0" stroke="#8A8B8A" stroke-width="4.209" stroke-linecap="round" stroke-linejoin="round"/>
    <path d="M241.165,241.355 L204.837,268.586 L235.442,288.171 L256.087,261.687 L241.165,241.355" fill="#FFFFFE"/>
    <path d="M241.165,241.355 L204.837,268.586 L235.442,288.171 L256.087,261.687 L241.165,241.355 z" fill-opacity="0" stroke="#8A8B8A" stroke-width="4.209" stroke-linecap="round" stroke-linejoin="round"/>
    <path d="M198.392,291.194 L192.024,319.773 L203.45,354.753 L219.827,317.058 L213.069,290.739 L198.392,291.194" fill="#244875"/>
    <path d="M204.808,353.337 L267.2,298.737 L254.954,282.502 L273.294,274.826 L243.177,240.564 L204.808,353.337" fill="#343534"/>
    <path d="M204.808,353.337 L267.2,298.737 L254.954,282.502 L273.294,274.826 L243.177,240.564 L204.808,353.337 z" fill-opacity="0" stroke="#1A1919" stroke-width="3.927" stroke-linecap="round" stroke-linejoin="round"/>
    <path d="M204.837,353.435 L146.829,298.737 L159.114,282.502 L140.735,274.826 L171.81,242.693 L204.837,353.435" fill="#343534"/>
    <path d="M204.837,353.435 L146.829,298.737 L159.114,282.502 L140.735,274.826 L171.81,242.693 L204.837,353.435 z" fill-opacity="0" stroke="#1A1919" stroke-width="3.927" stroke-linecap="round" stroke-linejoin="round"/>
    <path d="M198.118,370.901 C198.118,375.007 201.438,378.322 205.52,378.322 C209.642,378.322 212.952,375.007 212.952,370.901 C212.952,366.819 209.642,363.484 205.52,363.484 C201.438,363.484 198.118,366.819 198.118,370.901" fill="#1A1919"/>
    <path d="M198.118,425.363 C198.118,429.455 201.438,432.785 205.52,432.785 C209.642,432.785 212.952,429.455 212.952,425.363 C212.952,421.281 209.642,417.946 205.52,417.946 C201.438,417.946 198.118,421.281 198.118,425.363" fill="#1A1919"/>
    <path d="M198.118,479.826 C198.118,483.943 201.438,487.248 205.52,487.248 C209.642,487.248 212.952,483.943 212.952,479.826 C212.952,475.744 209.642,472.434 205.52,472.434 C201.438,472.434 198.118,475.744 198.118,479.826" fill="#1A1919"/>
    <path d="M131.067,359.177 L122.19,510.051 M277.708,359.177 L286.575,510.051" fill-opacity="0" stroke="#343534" stroke-width="3.927" stroke-linecap="round" stroke-linejoin="round"/>
    <path d="M342.278,506.569 L67.376,506.569 L82.493,431.047 L327.181,431.047 L342.278,506.569" fill="#C4C5C4"/>
    <path d="M327.688,494.182 L81.976,494.182 L72.923,332.463 L336.751,332.463 L327.688,494.182" fill="#8A8B8A"/>
    <path d="M72.923,332.463 L336.751,332.463 L326.058,324.348 L82.552,324.348 L72.923,332.463" fill="#C4C5C4"/>
    <path d="M67.376,506.569 L342.278,506.569 L342.278,520.153 L67.376,520.153 z" fill="#777776"/>
    <path d="M256.106,538.195 L153.567,538.195 L162.19,431.716 L247.483,431.716 L256.106,538.195" fill="#777776"/>
    <path d="M162.19,431.716 L247.483,431.716 L248.079,439.245 L161.575,439.245 L162.19,431.716" fill="#C4C5C4"/>
  </g>
</svg>
